<svg width="1360" height="80" viewBox="0 0 1360 80" fill="none" xmlns="http://www.w3.org/2000/svg">
<g clip-path="url(#clip0_1014_882)">
<line x1="294.66" y1="-657.501" x2="-105.156" y2="35" stroke="#CCCCCC"/>
<line x1="308.516" y1="-649.501" x2="-91.2998" y2="43.0001" stroke="#CCCCCC"/>
<line x1="322.372" y1="-641.501" x2="-77.4434" y2="51.0001" stroke="#CCCCCC"/>
<line x1="336.229" y1="-633.501" x2="-63.5869" y2="59.0001" stroke="#CCCCCC"/>
<line x1="350.085" y1="-625.501" x2="-49.7305" y2="67.0001" stroke="#CCCCCC"/>
<line x1="363.942" y1="-617.501" x2="-35.8741" y2="75.0001" stroke="#CCCCCC"/>
<line x1="377.798" y1="-609.501" x2="-22.0177" y2="83.0001" stroke="#CCCCCC"/>
<line x1="391.655" y1="-601.501" x2="-8.16126" y2="91.0001" stroke="#CCCCCC"/>
<line x1="405.511" y1="-593.501" x2="5.69519" y2="99.0002" stroke="#CCCCCC"/>
<line x1="419.367" y1="-585.501" x2="19.5516" y2="107" stroke="#CCCCCC"/>
<line x1="433.224" y1="-577.501" x2="33.4081" y2="115" stroke="#CCCCCC"/>
<line x1="447.08" y1="-569.501" x2="47.2644" y2="123" stroke="#CCCCCC"/>
<line x1="460.937" y1="-561.501" x2="61.1209" y2="131" stroke="#CCCCCC"/>
<line x1="474.793" y1="-553.501" x2="74.9774" y2="139" stroke="#CCCCCC"/>
<line x1="488.65" y1="-545.501" x2="88.8338" y2="147" stroke="#CCCCCC"/>
<line x1="502.506" y1="-537.501" x2="102.69" y2="155" stroke="#CCCCCC"/>
<line x1="516.362" y1="-529.501" x2="116.547" y2="163" stroke="#CCCCCC"/>
<line x1="530.219" y1="-521.501" x2="130.403" y2="171" stroke="#CCCCCC"/>
<line x1="544.075" y1="-513.501" x2="144.26" y2="179" stroke="#CCCCCC"/>
<line x1="557.932" y1="-505.501" x2="158.116" y2="187" stroke="#CCCCCC"/>
<line x1="571.788" y1="-497.501" x2="171.972" y2="195" stroke="#CCCCCC"/>
<line x1="585.645" y1="-489.501" x2="185.829" y2="203" stroke="#CCCCCC"/>
<line x1="599.501" y1="-481.501" x2="199.685" y2="211" stroke="#CCCCCC"/>
<line x1="613.358" y1="-473.501" x2="213.542" y2="219" stroke="#CCCCCC"/>
<line x1="627.214" y1="-465.501" x2="227.398" y2="227" stroke="#CCCCCC"/>
<line x1="641.07" y1="-457.501" x2="241.255" y2="235" stroke="#CCCCCC"/>
<line x1="654.927" y1="-449.501" x2="255.111" y2="243" stroke="#CCCCCC"/>
<line x1="668.783" y1="-441.501" x2="268.967" y2="251" stroke="#CCCCCC"/>
<line x1="682.64" y1="-433.501" x2="282.824" y2="259" stroke="#CCCCCC"/>
<line x1="696.496" y1="-425.501" x2="296.68" y2="267" stroke="#CCCCCC"/>
<line x1="710.353" y1="-417.501" x2="310.537" y2="275" stroke="#CCCCCC"/>
<line x1="724.209" y1="-409.501" x2="324.393" y2="283" stroke="#CCCCCC"/>
<line x1="738.065" y1="-401.501" x2="338.25" y2="291" stroke="#CCCCCC"/>
<line x1="751.922" y1="-393.501" x2="352.106" y2="299" stroke="#CCCCCC"/>
<line x1="765.778" y1="-385.501" x2="365.962" y2="307.001" stroke="#CCCCCC"/>
<line x1="779.635" y1="-377.501" x2="379.819" y2="315.001" stroke="#CCCCCC"/>
<line x1="793.491" y1="-369.501" x2="393.675" y2="323.001" stroke="#CCCCCC"/>
<line x1="807.347" y1="-361.501" x2="407.532" y2="331.001" stroke="#CCCCCC"/>
<line x1="821.204" y1="-353.501" x2="421.388" y2="339.001" stroke="#CCCCCC"/>
<line x1="835.06" y1="-345.501" x2="435.244" y2="347.001" stroke="#CCCCCC"/>
<line x1="848.917" y1="-337.501" x2="449.101" y2="355.001" stroke="#CCCCCC"/>
<line x1="862.773" y1="-329.501" x2="462.957" y2="363.001" stroke="#CCCCCC"/>
<line x1="876.63" y1="-321.501" x2="476.814" y2="371.001" stroke="#CCCCCC"/>
<line x1="890.486" y1="-313.501" x2="490.67" y2="379.001" stroke="#CCCCCC"/>
<line x1="904.342" y1="-305.501" x2="504.527" y2="387.001" stroke="#CCCCCC"/>
<line x1="918.199" y1="-297.501" x2="518.383" y2="395.001" stroke="#CCCCCC"/>
<line x1="932.055" y1="-289.501" x2="532.239" y2="403.001" stroke="#CCCCCC"/>
<line x1="945.912" y1="-281.501" x2="546.096" y2="411.001" stroke="#CCCCCC"/>
<line x1="959.768" y1="-273.501" x2="559.952" y2="419.001" stroke="#CCCCCC"/>
<line x1="973.624" y1="-265.501" x2="573.809" y2="427.001" stroke="#CCCCCC"/>
<line x1="987.481" y1="-257.501" x2="587.665" y2="435.001" stroke="#CCCCCC"/>
<line x1="1001.34" y1="-249.501" x2="601.521" y2="443.001" stroke="#CCCCCC"/>
<line x1="1015.19" y1="-241.501" x2="615.378" y2="451.001" stroke="#CCCCCC"/>
<line x1="1029.05" y1="-233.501" x2="629.234" y2="459.001" stroke="#CCCCCC"/>
<line x1="1042.91" y1="-225.501" x2="643.091" y2="467.001" stroke="#CCCCCC"/>
<line x1="1056.76" y1="-217.501" x2="656.947" y2="475.001" stroke="#CCCCCC"/>
<line x1="1070.62" y1="-209.501" x2="670.804" y2="483.001" stroke="#CCCCCC"/>
<line x1="1084.48" y1="-201.501" x2="684.66" y2="491.001" stroke="#CCCCCC"/>
<line x1="1098.33" y1="-193.501" x2="698.516" y2="499.001" stroke="#CCCCCC"/>
<line x1="1112.19" y1="-185.501" x2="712.373" y2="507.001" stroke="#CCCCCC"/>
<line x1="1126.04" y1="-177.501" x2="726.229" y2="515.001" stroke="#CCCCCC"/>
<line x1="1139.9" y1="-169.501" x2="740.086" y2="523.001" stroke="#CCCCCC"/>
<line x1="1153.76" y1="-161.501" x2="753.942" y2="531.001" stroke="#CCCCCC"/>
<line x1="1167.61" y1="-153.501" x2="767.798" y2="539.001" stroke="#CCCCCC"/>
<line x1="1181.47" y1="-145.501" x2="781.655" y2="547.001" stroke="#CCCCCC"/>
<line x1="1195.33" y1="-137.501" x2="795.511" y2="555.001" stroke="#CCCCCC"/>
<line x1="1209.18" y1="-129.501" x2="809.368" y2="563.001" stroke="#CCCCCC"/>
<line x1="1223.04" y1="-121.501" x2="823.224" y2="571.001" stroke="#CCCCCC"/>
<line x1="1236.9" y1="-113.501" x2="837.08" y2="579.001" stroke="#CCCCCC"/>
<line x1="1250.75" y1="-105.501" x2="850.937" y2="587.001" stroke="#CCCCCC"/>
<line x1="1264.61" y1="-97.5007" x2="864.793" y2="595.001" stroke="#CCCCCC"/>
<line x1="1278.47" y1="-89.5007" x2="878.65" y2="603.001" stroke="#CCCCCC"/>
<line x1="1292.32" y1="-81.5007" x2="892.506" y2="611.001" stroke="#CCCCCC"/>
<line x1="1306.18" y1="-73.5007" x2="906.362" y2="619.001" stroke="#CCCCCC"/>
<line x1="1320.03" y1="-65.5007" x2="920.219" y2="627.001" stroke="#CCCCCC"/>
<line x1="1333.89" y1="-57.5007" x2="934.075" y2="635.001" stroke="#CCCCCC"/>
<line x1="1347.75" y1="-49.5007" x2="947.932" y2="643.001" stroke="#CCCCCC"/>
<line x1="1361.6" y1="-41.5007" x2="961.788" y2="651.001" stroke="#CCCCCC"/>
<line x1="1375.46" y1="-33.5007" x2="975.645" y2="659.001" stroke="#CCCCCC"/>
<line x1="1389.32" y1="-25.5007" x2="989.501" y2="667.001" stroke="#CCCCCC"/>
<line x1="1403.17" y1="-17.5007" x2="1003.36" y2="675.001" stroke="#CCCCCC"/>
<line x1="1417.03" y1="-9.50067" x2="1017.21" y2="683.001" stroke="#CCCCCC"/>
<line x1="1430.89" y1="-1.50067" x2="1031.07" y2="691.001" stroke="#CCCCCC"/>
<line x1="1444.74" y1="6.49933" x2="1044.93" y2="699.001" stroke="#CCCCCC"/>
<line x1="1458.6" y1="14.4993" x2="1058.78" y2="707.001" stroke="#CCCCCC"/>
<line x1="1472.46" y1="22.4993" x2="1072.64" y2="715.001" stroke="#CCCCCC"/>
<line x1="1486.31" y1="30.4993" x2="1086.5" y2="723.001" stroke="#CCCCCC"/>
<line x1="1500.17" y1="38.4993" x2="1100.35" y2="731.001" stroke="#CCCCCC"/>
<line x1="1514.02" y1="46.4993" x2="1114.21" y2="739.001" stroke="#CCCCCC"/>
</g>
<defs>
<clipPath id="clip0_1014_882">
<rect width="1360" height="80" fill="white"/>
</clipPath>
</defs>
</svg>
