<svg width="32" height="24" viewBox="0 0 32 24" fill="none" xmlns="http://www.w3.org/2000/svg">
<path d="M0 24V17.6842C0 15.7661 0.346786 13.731 1.04036 11.5789C1.75785 9.40351 2.78625 7.30994 4.12556 5.29825C5.48879 3.26316 7.12706 1.49707 9.04036 0L13.6323 3.64912C12.1256 5.75439 10.8102 7.95322 9.6861 10.2456C8.58595 12.5146 8.03587 14.9474 8.03587 17.5439V24H0ZM18.3677 24V17.6842C18.3677 15.7661 18.7145 13.731 19.4081 11.5789C20.1256 9.40351 21.154 7.30994 22.4933 5.29825C23.8565 3.26316 25.4948 1.49707 27.4081 0L32 3.64912C30.4933 5.75439 29.1779 7.95322 28.0538 10.2456C26.9537 12.5146 26.4036 14.9474 26.4036 17.5439V24H18.3677Z" fill="#FEF9EF"/>
</svg>
