<svg width="32" height="32" viewBox="0 0 32 32" fill="none" xmlns="http://www.w3.org/2000/svg">
<path d="M26.9733 14.7713C26.9354 14.611 26.8586 14.4626 26.7495 14.3392C26.6405 14.2157 26.5027 14.1212 26.3483 14.0638L19.1471 11.3626L20.9796 2.19631C21.021 1.98333 20.9921 1.76264 20.8972 1.56753C20.8023 1.37243 20.6465 1.21349 20.4533 1.11471C20.2601 1.01593 20.04 0.98266 19.8263 1.01993C19.6125 1.0572 19.4167 1.16298 19.2683 1.32131L5.2683 16.3213C5.1546 16.4411 5.07234 16.5872 5.02888 16.7466C4.98542 16.906 4.98212 17.0736 5.01926 17.2345C5.0564 17.3955 5.13284 17.5447 5.24173 17.6689C5.35063 17.7931 5.48859 17.8884 5.6433 17.9463L12.8471 20.6476L11.0196 29.8038C10.9781 30.0168 11.007 30.2375 11.1019 30.4326C11.1968 30.6277 11.3526 30.7866 11.5458 30.8854C11.739 30.9842 11.9591 31.0175 12.1729 30.9802C12.3866 30.9429 12.5824 30.8371 12.7308 30.6788L26.7308 15.6788C26.8425 15.559 26.923 15.4135 26.9652 15.2553C27.0075 15.0971 27.0103 14.9309 26.9733 14.7713ZM13.6708 26.7501L14.9796 20.2026C15.0264 19.9703 14.9893 19.729 14.8748 19.5216C14.7604 19.3142 14.576 19.1542 14.3546 19.0701L7.74955 16.5888L18.3271 5.25631L17.0196 11.8038C16.9727 12.036 17.0098 12.2773 17.1243 12.4847C17.2387 12.6921 17.4231 12.8522 17.6446 12.9363L24.2446 15.4113L13.6708 26.7501Z" fill="#212121"/>
</svg>
