<svg width="32" height="32" viewBox="0 0 32 32" fill="none" xmlns="http://www.w3.org/2000/svg">
<path d="M24.6972 16.1325L18.2497 13.75L15.8747 7.2975C15.7341 6.91541 15.4796 6.58566 15.1457 6.35273C14.8117 6.11981 14.4144 5.99492 14.0072 5.99492C13.6001 5.99492 13.2027 6.11981 12.8688 6.35273C12.5348 6.58566 12.2804 6.91541 12.1397 7.2975L9.74971 13.75L3.29721 16.125C2.91512 16.2656 2.58537 16.5201 2.35244 16.854C2.11952 17.188 1.99463 17.5853 1.99463 17.9925C1.99463 18.3997 2.11952 18.797 2.35244 19.131C2.58537 19.4649 2.91512 19.7194 3.29721 19.86L9.74971 22.25L12.1247 28.7025C12.2654 29.0846 12.5198 29.4143 12.8538 29.6473C13.1877 29.8802 13.5851 30.0051 13.9922 30.0051C14.3994 30.0051 14.7967 29.8802 15.1307 29.6473C15.4646 29.4143 15.7191 29.0846 15.8597 28.7025L18.2497 22.25L24.7022 19.875C25.0843 19.7344 25.4141 19.4799 25.647 19.146C25.8799 18.812 26.0048 18.4147 26.0048 18.0075C26.0048 17.6003 25.8799 17.203 25.647 16.869C25.4141 16.5351 25.0843 16.2806 24.7022 16.14L24.6972 16.1325ZM17.1247 20.5275C16.989 20.5775 16.8657 20.6564 16.7634 20.7587C16.6611 20.861 16.5822 20.9843 16.5322 21.12L13.9997 27.9813L11.4722 21.125C11.4223 20.9878 11.3429 20.8633 11.2397 20.76C11.1364 20.6568 11.0119 20.5774 10.8747 20.5275L4.01846 18L10.8747 15.4725C11.0119 15.4226 11.1364 15.3432 11.2397 15.24C11.3429 15.1367 11.4223 15.0122 11.4722 14.875L13.9997 8.01875L16.5272 14.875C16.5772 15.0107 16.6561 15.134 16.7584 15.2363C16.8607 15.3386 16.984 15.4175 17.1197 15.4675L23.981 18L17.1247 20.5275ZM17.9997 5C17.9997 4.73478 18.1051 4.48043 18.2926 4.29289C18.4801 4.10536 18.7345 4 18.9997 4H20.9997V2C20.9997 1.73478 21.1051 1.48043 21.2926 1.29289C21.4801 1.10536 21.7345 1 21.9997 1C22.2649 1 22.5193 1.10536 22.7068 1.29289C22.8944 1.48043 22.9997 1.73478 22.9997 2V4H24.9997C25.2649 4 25.5193 4.10536 25.7068 4.29289C25.8944 4.48043 25.9997 4.73478 25.9997 5C25.9997 5.26522 25.8944 5.51957 25.7068 5.70711C25.5193 5.89464 25.2649 6 24.9997 6H22.9997V8C22.9997 8.26522 22.8944 8.51957 22.7068 8.70711C22.5193 8.89464 22.2649 9 21.9997 9C21.7345 9 21.4801 8.89464 21.2926 8.70711C21.1051 8.51957 20.9997 8.26522 20.9997 8V6H18.9997C18.7345 6 18.4801 5.89464 18.2926 5.70711C18.1051 5.51957 17.9997 5.26522 17.9997 5ZM30.9997 11C30.9997 11.2652 30.8944 11.5196 30.7068 11.7071C30.5193 11.8946 30.2649 12 29.9997 12H28.9997V13C28.9997 13.2652 28.8944 13.5196 28.7068 13.7071C28.5193 13.8946 28.2649 14 27.9997 14C27.7345 14 27.4801 13.8946 27.2926 13.7071C27.1051 13.5196 26.9997 13.2652 26.9997 13V12H25.9997C25.7345 12 25.4801 11.8946 25.2926 11.7071C25.1051 11.5196 24.9997 11.2652 24.9997 11C24.9997 10.7348 25.1051 10.4804 25.2926 10.2929C25.4801 10.1054 25.7345 10 25.9997 10H26.9997V9C26.9997 8.73478 27.1051 8.48043 27.2926 8.29289C27.4801 8.10536 27.7345 8 27.9997 8C28.2649 8 28.5193 8.10536 28.7068 8.29289C28.8944 8.48043 28.9997 8.73478 28.9997 9V10H29.9997C30.2649 10 30.5193 10.1054 30.7068 10.2929C30.8944 10.4804 30.9997 10.7348 30.9997 11Z" fill="#212121"/>
</svg>
