<svg width="32" height="32" viewBox="0 0 32 32" fill="none" xmlns="http://www.w3.org/2000/svg">
<path d="M14.6563 19.7401C15.9966 18.8478 17.0141 17.5479 17.5584 16.0326C18.1028 14.5173 18.145 12.8671 17.6789 11.3259C17.2129 9.78477 16.2632 8.43452 14.9703 7.47484C13.6775 6.51516 12.1102 5.99701 10.5001 5.99701C8.88997 5.99701 7.32261 6.51516 6.02978 7.47484C4.73694 8.43452 3.78726 9.78477 3.32118 11.3259C2.85509 12.8671 2.89734 14.5173 3.44168 16.0326C3.98603 17.5479 5.00356 18.8478 6.34381 19.7401C3.91943 20.6336 1.84894 22.2871 0.441312 24.4538C0.367332 24.5638 0.315945 24.6873 0.290139 24.8173C0.264332 24.9473 0.264621 25.0811 0.290989 25.211C0.317356 25.3409 0.369276 25.4642 0.44373 25.5738C0.518185 25.6835 0.613688 25.7772 0.72469 25.8496C0.835692 25.922 0.959977 25.9716 1.09032 25.9956C1.22067 26.0195 1.35447 26.0173 1.48396 25.9891C1.61344 25.9609 1.73603 25.9072 1.84458 25.8312C1.95314 25.7552 2.04551 25.6583 2.11631 25.5463C3.0243 24.1498 4.26676 23.0022 5.73086 22.2078C7.19496 21.4133 8.83432 20.9972 10.5001 20.9972C12.1658 20.9972 13.8052 21.4133 15.2693 22.2078C16.7334 23.0022 17.9758 24.1498 18.8838 25.5463C19.0305 25.7643 19.257 25.9158 19.5145 25.9681C19.772 26.0204 20.0397 25.9692 20.2598 25.8257C20.4799 25.6821 20.6346 25.4577 20.6906 25.201C20.7465 24.9443 20.6992 24.6759 20.5588 24.4538C19.1512 22.2871 17.0807 20.6336 14.6563 19.7401ZM5.00006 13.5001C5.00006 12.4123 5.32263 11.3489 5.92698 10.4444C6.53133 9.53995 7.39031 8.835 8.3953 8.41872C9.4003 8.00243 10.5062 7.89352 11.5731 8.10573C12.64 8.31795 13.62 8.84178 14.3891 9.61096C15.1583 10.3802 15.6822 11.3602 15.8944 12.4271C16.1066 13.494 15.9977 14.5998 15.5814 15.6048C15.1651 16.6098 14.4602 17.4688 13.5557 18.0731C12.6512 18.6775 11.5879 19.0001 10.5001 19.0001C9.04188 18.9984 7.64389 18.4184 6.6128 17.3873C5.58171 16.3562 5.00172 14.9582 5.00006 13.5001ZM31.2676 25.8376C31.0454 25.9824 30.7749 26.0331 30.5154 25.9785C30.2559 25.9239 30.0287 25.7684 29.8838 25.5463C28.9769 24.149 27.7346 23.0009 26.2702 22.2068C24.8058 21.4127 23.1659 20.9978 21.5001 21.0001C21.2348 21.0001 20.9805 20.8947 20.793 20.7072C20.6054 20.5196 20.5001 20.2653 20.5001 20.0001C20.5001 19.7348 20.6054 19.4805 20.793 19.2929C20.9805 19.1054 21.2348 19.0001 21.5001 19.0001C22.31 18.9993 23.1098 18.8196 23.8423 18.4739C24.5748 18.1282 25.2219 17.625 25.7373 17.0003C26.2528 16.3755 26.6239 15.6446 26.8242 14.8598C27.0244 14.075 27.0488 13.2556 26.8957 12.4602C26.7426 11.6649 26.4157 10.9132 25.9383 10.2588C25.461 9.60443 24.845 9.06356 24.1344 8.67484C23.4239 8.28613 22.6362 8.05915 21.8277 8.01013C21.0192 7.96112 20.2099 8.09128 19.4576 8.3913C19.3349 8.44433 19.2028 8.47223 19.0692 8.47336C18.9356 8.47449 18.8031 8.44882 18.6795 8.39788C18.556 8.34693 18.4439 8.27174 18.3499 8.17674C18.2559 8.08174 18.1819 7.96887 18.1323 7.84479C18.0827 7.72071 18.0584 7.58794 18.0609 7.45433C18.0635 7.32071 18.0928 7.18896 18.1471 7.06687C18.2015 6.94477 18.2797 6.8348 18.3772 6.74346C18.4748 6.65212 18.5897 6.58125 18.7151 6.53505C20.4369 5.84837 22.352 5.82366 24.091 6.46569C25.83 7.10772 27.2696 8.371 28.1321 10.0118C28.9946 11.6526 29.2189 13.5548 28.7617 15.3512C28.3045 17.1476 27.1982 18.7111 25.6563 19.7401C28.0807 20.6336 30.1512 22.2871 31.5588 24.4538C31.7037 24.6759 31.7543 24.9465 31.6997 25.206C31.6451 25.4655 31.4897 25.6927 31.2676 25.8376Z" fill="#212121"/>
</svg>
