<svg width="448" height="401" viewBox="0 0 448 401" fill="none" xmlns="http://www.w3.org/2000/svg">
<g clip-path="url(#clip0_1202_2215)">
<path d="M0 112H448H0ZM0 224H448H0ZM0 336H448H0ZM112 0V448V0ZM224 0V448V0ZM336 0V448V0Z" fill="black"/>
<path d="M0 112H448H0M0 224H448H0M0 336H448H0M112 0V448V0M224 0V448V0M336 0V448V0" stroke="#212121" stroke-opacity="0.5"/>
<path d="M44.7998 353.702C89.5998 346.235 130.666 308.902 168 241.702C205.333 174.502 253.866 137.168 313.6 129.702C373.333 122.235 403.2 92.3682 403.2 40.1016" stroke="#FF5C00" stroke-width="3.36"/>
<path d="M193 196.888C193 199.361 195.007 201.368 197.48 201.368C199.953 201.368 201.96 199.361 201.96 196.888C201.96 194.416 199.953 192.408 197.48 192.408C195.007 192.408 193 194.416 193 196.888Z" fill="#FF5C00"/>
<path d="M396.48 40.804C396.48 44.5129 399.492 47.524 403.2 47.524C406.909 47.524 409.92 44.5129 409.92 40.804C409.92 37.0951 406.909 34.084 403.2 34.084C399.492 34.084 396.48 37.0951 396.48 40.804Z" fill="#FF5C00"/>
<path d="M42 353.58C42 356.052 44.0074 358.06 46.48 358.06C48.9526 358.06 50.96 356.052 50.96 353.58C50.96 351.107 48.9526 349.1 46.48 349.1C44.0074 349.1 42 351.107 42 353.58Z" fill="#FF5C00"/>
<path d="M58.564 358V357.1H59.74V350.5H58.564V349.6H62.776C63.264 349.6 63.696 349.688 64.072 349.864C64.456 350.04 64.752 350.288 64.96 350.608C65.176 350.92 65.284 351.288 65.284 351.712V351.808C65.284 352.2 65.208 352.524 65.056 352.78C64.904 353.028 64.724 353.224 64.516 353.368C64.308 353.504 64.104 353.604 63.904 353.668V353.836C64.104 353.884 64.312 353.98 64.528 354.124C64.744 354.26 64.924 354.456 65.068 354.712C65.22 354.968 65.296 355.292 65.296 355.684V355.804C65.296 356.26 65.184 356.656 64.96 356.992C64.744 357.32 64.444 357.572 64.06 357.748C63.684 357.916 63.252 358 62.764 358H58.564ZM60.748 357.088H62.656C63.184 357.088 63.588 356.964 63.868 356.716C64.148 356.468 64.288 356.132 64.288 355.708V355.6C64.288 355.176 64.148 354.84 63.868 354.592C63.588 354.344 63.184 354.22 62.656 354.22H60.748V357.088ZM60.748 353.308H62.692C63.172 353.308 63.556 353.188 63.844 352.948C64.132 352.7 64.276 352.376 64.276 351.976V351.856C64.276 351.448 64.132 351.124 63.844 350.884C63.564 350.636 63.18 350.512 62.692 350.512H60.748V353.308ZM66.175 358L68.767 349.6H70.543L73.135 358H72.091L71.443 355.876H67.867L67.219 358H66.175ZM68.119 354.964H71.179L69.739 350.212H69.571L68.119 354.964ZM77.1544 358.168C76.5464 358.168 76.0024 358.06 75.5224 357.844C75.0424 357.628 74.6624 357.304 74.3824 356.872C74.1104 356.432 73.9744 355.884 73.9744 355.228V354.976H74.9704V355.228C74.9704 355.924 75.1744 356.444 75.5824 356.788C75.9904 357.124 76.5144 357.292 77.1544 357.292C77.8104 357.292 78.3104 357.144 78.6544 356.848C78.9984 356.552 79.1704 356.18 79.1704 355.732C79.1704 355.42 79.0904 355.172 78.9304 354.988C78.7784 354.804 78.5624 354.656 78.2824 354.544C78.0024 354.424 77.6744 354.32 77.2984 354.232L76.6744 354.076C76.1864 353.948 75.7544 353.792 75.3784 353.608C75.0024 353.424 74.7064 353.184 74.4904 352.888C74.2824 352.584 74.1784 352.196 74.1784 351.724C74.1784 351.252 74.2944 350.844 74.5264 350.5C74.7664 350.156 75.0984 349.892 75.5224 349.708C75.9544 349.524 76.4504 349.432 77.0104 349.432C77.5784 349.432 78.0864 349.532 78.5344 349.732C78.9904 349.924 79.3464 350.212 79.6024 350.596C79.8664 350.972 79.9984 351.448 79.9984 352.024V352.528H79.0024V352.024C79.0024 351.616 78.9144 351.288 78.7384 351.04C78.5704 350.792 78.3344 350.608 78.0304 350.488C77.7344 350.368 77.3944 350.308 77.0104 350.308C76.4584 350.308 76.0144 350.432 75.6784 350.68C75.3424 350.92 75.1744 351.264 75.1744 351.712C75.1744 352.008 75.2464 352.248 75.3904 352.432C75.5344 352.616 75.7384 352.768 76.0024 352.888C76.2664 353 76.5824 353.1 76.9504 353.188L77.5744 353.344C78.0624 353.448 78.4984 353.592 78.8824 353.776C79.2744 353.952 79.5864 354.196 79.8184 354.508C80.0504 354.812 80.1664 355.212 80.1664 355.708C80.1664 356.204 80.0424 356.636 79.7944 357.004C79.5464 357.372 79.1944 357.66 78.7384 357.868C78.2904 358.068 77.7624 358.168 77.1544 358.168ZM81.7178 358V349.6H86.8898V350.512H82.7258V353.32H86.5538V354.232H82.7258V357.088H86.9498V358H81.7178ZM88.4795 358V349.6H89.4875V357.088H93.7355V358H88.4795ZM95.0303 358V349.6H96.0383V358H95.0303ZM97.96 358V349.6H99.916L102.844 357.364H103V349.6H103.996V358H102.04L99.124 350.224H98.956V358H97.96ZM105.929 358V349.6H111.101V350.512H106.937V353.32H110.765V354.232H106.937V357.088H111.161V358H105.929Z" fill="#212121"/>
<path d="M330 125.58C330 128.052 332.007 130.06 334.48 130.06C336.953 130.06 338.96 128.052 338.96 125.58C338.96 123.107 336.953 121.1 334.48 121.1C332.007 121.1 330 123.107 330 125.58Z" fill="#FF5C00"/>
<path d="M346.3 130L348.892 121.6H350.668L353.26 130H352.216L351.568 127.876H347.992L347.344 130H346.3ZM348.244 126.964H351.304L349.864 122.212H349.696L348.244 126.964ZM354.519 130V121.6H355.527V130H354.519ZM360.53 130V121.6H361.538V130H360.53ZM363.46 130V121.6H365.416L368.344 129.364H368.5V121.6H369.496V130H367.54L364.624 122.224H364.456V130H363.46ZM373.493 130V122.512H370.793V121.6H377.201V122.512H374.501V130H373.493ZM378.483 130V121.6H383.655V122.512H379.491V125.32H383.319V126.232H379.491V129.088H383.715V130H378.483ZM385.245 130V121.6H388.641C389.161 121.6 389.617 121.692 390.009 121.876C390.409 122.052 390.721 122.308 390.945 122.644C391.169 122.972 391.281 123.368 391.281 123.832V123.964C391.281 124.516 391.149 124.952 390.885 125.272C390.621 125.592 390.309 125.808 389.949 125.92V126.088C390.237 126.096 390.473 126.192 390.657 126.376C390.849 126.552 390.945 126.82 390.945 127.18V130H389.949V127.3C389.949 127.06 389.881 126.876 389.745 126.748C389.617 126.62 389.421 126.556 389.157 126.556H386.253V130H385.245ZM386.253 125.644H388.545C389.097 125.644 389.521 125.512 389.817 125.248C390.121 124.976 390.273 124.6 390.273 124.12V124.036C390.273 123.556 390.125 123.184 389.829 122.92C389.533 122.648 389.105 122.512 388.545 122.512H386.253V125.644ZM394.547 130L392.015 121.6H393.059L395.351 129.388H395.507L397.799 121.6H398.843L396.311 130H394.547ZM400.105 130V121.6H405.277V122.512H401.113V125.32H404.941V126.232H401.113V129.088H405.337V130H400.105ZM406.866 130V121.6H408.822L411.75 129.364H411.906V121.6H412.902V130H410.946L408.03 122.224H407.862V130H406.866ZM416.899 130V122.512H414.199V121.6H420.607V122.512H417.907V130H416.899ZM421.89 130V121.6H422.898V130H421.89ZM427.867 130.168C426.867 130.168 426.067 129.88 425.467 129.304C424.875 128.72 424.579 127.872 424.579 126.76V124.84C424.579 123.728 424.875 122.884 425.467 122.308C426.067 121.724 426.867 121.432 427.867 121.432C428.875 121.432 429.675 121.724 430.267 122.308C430.867 122.884 431.167 123.728 431.167 124.84V126.76C431.167 127.872 430.867 128.72 430.267 129.304C429.675 129.88 428.875 130.168 427.867 130.168ZM427.867 129.268C428.595 129.268 429.159 129.052 429.559 128.62C429.959 128.18 430.159 127.572 430.159 126.796V124.804C430.159 124.028 429.959 123.424 429.559 122.992C429.159 122.552 428.595 122.332 427.867 122.332C427.147 122.332 426.587 122.552 426.187 122.992C425.787 123.424 425.587 124.028 425.587 124.804V126.796C425.587 127.572 425.787 128.18 426.187 128.62C426.587 129.052 427.147 129.268 427.867 129.268ZM432.847 130V121.6H434.803L437.731 129.364H437.887V121.6H438.883V130H436.927L434.011 122.224H433.843V130H432.847Z" fill="#212121"/>
<path d="M373.934 22.04V19.492H371.4V18.708H373.934V16.16H374.746V18.708H377.28V19.492H374.746V22.04H373.934ZM382.266 24V14.732H382.084L379.942 18.372H378.962L381.44 14.2H383.134V24H382.266ZM385.154 24V23.034C385.154 22.334 385.28 21.7833 385.532 21.382C385.784 20.9713 386.134 20.6447 386.582 20.402C387.039 20.1593 387.576 19.9447 388.192 19.758L388.892 19.534C389.349 19.394 389.75 19.226 390.096 19.03C390.45 18.8247 390.726 18.5633 390.922 18.246C391.118 17.9287 391.216 17.5273 391.216 17.042V16.986C391.216 16.3047 390.978 15.768 390.502 15.376C390.035 14.984 389.438 14.788 388.71 14.788C387.935 14.788 387.3 14.998 386.806 15.418C386.311 15.8287 386.064 16.4587 386.064 17.308V17.49H385.224V17.308C385.224 16.5987 385.373 16.0013 385.672 15.516C385.97 15.0213 386.381 14.648 386.904 14.396C387.436 14.1347 388.038 14.004 388.71 14.004C389.382 14.004 389.97 14.13 390.474 14.382C390.987 14.6247 391.384 14.97 391.664 15.418C391.944 15.8567 392.084 16.37 392.084 16.958V17.084C392.084 17.7187 391.958 18.2413 391.706 18.652C391.463 19.0533 391.118 19.3847 390.67 19.646C390.222 19.898 389.694 20.122 389.088 20.318L388.388 20.528C387.884 20.6867 387.454 20.8547 387.1 21.032C386.754 21.2 386.488 21.4287 386.302 21.718C386.115 21.998 386.022 22.39 386.022 22.894V23.216H392V24H385.154ZM397.256 24.196C396.491 24.196 395.833 24.084 395.282 23.86C394.741 23.6267 394.321 23.3047 394.022 22.894C393.733 22.474 393.588 21.9887 393.588 21.438V21.298C393.588 20.794 393.695 20.3787 393.91 20.052C394.134 19.7253 394.405 19.478 394.722 19.31C395.039 19.1327 395.333 19.0253 395.604 18.988V18.82C395.333 18.7547 395.053 18.638 394.764 18.47C394.484 18.2927 394.251 18.0593 394.064 17.77C393.877 17.4713 393.784 17.1073 393.784 16.678V16.538C393.784 15.9967 393.933 15.5393 394.232 15.166C394.54 14.7927 394.955 14.508 395.478 14.312C396.001 14.1067 396.593 14.004 397.256 14.004C397.919 14.004 398.511 14.1067 399.034 14.312C399.557 14.508 399.967 14.7927 400.266 15.166C400.574 15.5393 400.728 15.9967 400.728 16.538V16.678C400.728 17.1073 400.635 17.4713 400.448 17.77C400.261 18.0593 400.028 18.2927 399.748 18.47C399.468 18.638 399.188 18.7547 398.908 18.82V18.988C399.188 19.0253 399.482 19.1327 399.79 19.31C400.107 19.478 400.373 19.7253 400.588 20.052C400.812 20.3787 400.924 20.794 400.924 21.298V21.438C400.924 21.9887 400.775 22.474 400.476 22.894C400.187 23.3047 399.767 23.6267 399.216 23.86C398.675 24.084 398.021 24.196 397.256 24.196ZM397.256 23.412C398.105 23.412 398.782 23.244 399.286 22.908C399.799 22.572 400.056 22.0773 400.056 21.424V21.312C400.056 20.6493 399.799 20.1547 399.286 19.828C398.782 19.492 398.105 19.324 397.256 19.324C396.407 19.324 395.725 19.492 395.212 19.828C394.708 20.1547 394.456 20.6493 394.456 21.312V21.424C394.456 22.0773 394.708 22.572 395.212 22.908C395.725 23.244 396.407 23.412 397.256 23.412ZM397.256 18.54C398.059 18.54 398.693 18.3813 399.16 18.064C399.627 17.7467 399.86 17.2987 399.86 16.72V16.608C399.86 16.0293 399.627 15.5813 399.16 15.264C398.693 14.9467 398.059 14.788 397.256 14.788C396.453 14.788 395.819 14.9467 395.352 15.264C394.885 15.5813 394.652 16.0293 394.652 16.608V16.72C394.652 17.2987 394.885 17.7467 395.352 18.064C395.819 18.3813 396.453 18.54 397.256 18.54ZM403.484 24.196L402.868 23.706L410.764 14.004L411.38 14.494L403.484 24.196ZM409.826 24.196C409.163 24.196 408.626 23.9953 408.216 23.594C407.814 23.1833 407.614 22.6373 407.614 21.956V21.872C407.614 21.1813 407.814 20.6353 408.216 20.234C408.626 19.8327 409.163 19.632 409.826 19.632C410.488 19.632 411.02 19.8327 411.422 20.234C411.832 20.6353 412.038 21.1813 412.038 21.872V21.956C412.038 22.6373 411.832 23.1833 411.422 23.594C411.02 23.9953 410.488 24.196 409.826 24.196ZM409.826 23.524C410.274 23.524 410.628 23.384 410.89 23.104C411.151 22.8147 411.282 22.4413 411.282 21.984V21.844C411.282 21.3773 411.151 21.004 410.89 20.724C410.628 20.444 410.274 20.304 409.826 20.304C409.378 20.304 409.023 20.444 408.762 20.724C408.5 21.004 408.37 21.3773 408.37 21.844V21.984C408.37 22.4413 408.5 22.8147 408.762 23.104C409.023 23.384 409.378 23.524 409.826 23.524ZM404.422 18.568C403.759 18.568 403.222 18.3673 402.812 17.966C402.41 17.5553 402.21 17.0093 402.21 16.328V16.244C402.21 15.5533 402.41 15.0073 402.812 14.606C403.222 14.2047 403.759 14.004 404.422 14.004C405.084 14.004 405.616 14.2047 406.018 14.606C406.428 15.0073 406.634 15.5533 406.634 16.244V16.328C406.634 17.0093 406.428 17.5553 406.018 17.966C405.616 18.3673 405.084 18.568 404.422 18.568ZM404.422 17.896C404.87 17.896 405.224 17.756 405.486 17.476C405.747 17.1867 405.878 16.8133 405.878 16.356V16.216C405.878 15.7493 405.747 15.376 405.486 15.096C405.224 14.816 404.87 14.676 404.422 14.676C403.974 14.676 403.619 14.816 403.358 15.096C403.096 15.376 402.966 15.7493 402.966 16.216V16.356C402.966 16.8133 403.096 17.1867 403.358 17.476C403.619 17.756 403.974 17.896 404.422 17.896ZM417.388 24V14.2H421.224C421.83 14.2 422.362 14.3027 422.82 14.508C423.286 14.7133 423.65 15.012 423.912 15.404C424.182 15.7867 424.318 16.2533 424.318 16.804V16.944C424.318 17.6067 424.159 18.1293 423.842 18.512C423.524 18.8853 423.151 19.1327 422.722 19.254V19.422C423.048 19.4313 423.324 19.534 423.548 19.73C423.772 19.926 423.884 20.2387 423.884 20.668V24H422.988V20.766C422.988 20.4673 422.904 20.2387 422.736 20.08C422.577 19.9213 422.334 19.842 422.008 19.842H418.284V24H417.388ZM418.284 19.03H421.14C421.868 19.03 422.428 18.862 422.82 18.526C423.221 18.1807 423.422 17.6907 423.422 17.056V16.986C423.422 16.3513 423.226 15.866 422.834 15.53C422.451 15.1847 421.886 15.012 421.14 15.012H418.284V19.03ZM429.678 24.196C428.53 24.196 427.615 23.86 426.934 23.188C426.252 22.5067 425.912 21.5127 425.912 20.206V17.994C425.912 16.6873 426.252 15.698 426.934 15.026C427.615 14.3447 428.53 14.004 429.678 14.004C430.826 14.004 431.74 14.3447 432.422 15.026C433.103 15.698 433.444 16.6873 433.444 17.994V20.206C433.444 21.5127 433.103 22.5067 432.422 23.188C431.74 23.86 430.826 24.196 429.678 24.196ZM429.678 23.384C430.592 23.384 431.297 23.1087 431.792 22.558C432.296 22.0073 432.548 21.2327 432.548 20.234V17.966C432.548 16.9673 432.296 16.1927 431.792 15.642C431.297 15.0913 430.592 14.816 429.678 14.816C428.772 14.816 428.068 15.0913 427.564 15.642C427.06 16.1927 426.808 16.9673 426.808 17.966V20.234C426.808 21.2327 427.06 22.0073 427.564 22.558C428.068 23.1087 428.772 23.384 429.678 23.384ZM435.544 24V14.2H436.44V24H435.544Z" fill="#FF5C00"/>
</g>
<defs>
<clipPath id="clip0_1202_2215">
<rect width="448" height="401" fill="white"/>
</clipPath>
</defs>
</svg>
