<svg width="32" height="32" viewBox="0 0 32 32" fill="none" xmlns="http://www.w3.org/2000/svg">
<path d="M27.7336 10.3945C29.1212 13.2968 29.3847 16.6102 28.473 19.6952C27.5614 22.7803 25.5393 25.4183 22.797 27.1001C20.0547 28.782 16.7867 29.3884 13.6235 28.8024C10.4604 28.2164 7.62651 26.4795 5.66872 23.9269C3.71093 21.3743 2.76807 18.187 3.0221 14.9801C3.27614 11.7732 4.70906 8.77405 7.04431 6.56152C9.37956 4.349 12.4516 3.07992 15.6675 2.99922C18.8835 2.91851 22.0153 4.03191 24.4586 6.12452L27.2923 3.28952C27.48 3.10188 27.7345 2.99647 27.9998 2.99647C28.2652 2.99647 28.5197 3.10188 28.7073 3.28952C28.895 3.47716 29.0004 3.73166 29.0004 3.99702C29.0004 4.26238 28.895 4.51688 28.7073 4.70452L16.7073 16.7045C16.5197 16.8922 16.2652 16.9976 15.9998 16.9976C15.7345 16.9976 15.48 16.8922 15.2923 16.7045C15.1047 16.5169 14.9993 16.2624 14.9993 15.997C14.9993 15.7317 15.1047 15.4772 15.2923 15.2895L18.7573 11.8245C17.8183 11.2035 16.6971 10.9175 15.5753 11.013C14.4535 11.1084 13.3967 11.5796 12.5761 12.3504C11.7554 13.1212 11.219 14.1464 11.0535 15.26C10.888 16.3736 11.1032 17.5105 11.6642 18.4866C12.2253 19.4627 13.0993 20.2209 14.1449 20.6384C15.1905 21.0559 16.3463 21.1084 17.4254 20.7872C18.5045 20.4661 19.4436 19.7901 20.0907 18.8688C20.7378 17.9475 21.0551 16.8348 20.9911 15.7108C20.9837 15.5794 21.0022 15.448 21.0457 15.3238C21.0891 15.1997 21.1566 15.0853 21.2442 14.9872C21.3318 14.8891 21.4379 14.8092 21.5564 14.7522C21.6749 14.6951 21.8035 14.6619 21.9348 14.6545C22.2 14.6396 22.4603 14.7307 22.6584 14.9076C22.7565 14.9953 22.8363 15.1014 22.8934 15.2199C22.9505 15.3384 22.9837 15.4669 22.9911 15.5983C23.0822 17.1892 22.6278 18.7637 21.7029 20.0614C20.778 21.3591 19.438 22.3024 17.9044 22.7354C16.3708 23.1684 14.7353 23.0651 13.2683 22.4426C11.8013 21.8202 10.5906 20.7158 9.83634 19.312C9.08205 17.9083 8.82931 16.2892 9.1199 14.7223C9.41048 13.1554 10.227 11.7346 11.4345 10.6947C12.642 9.65474 14.1682 9.05794 15.7608 9.00291C17.3534 8.94788 18.9172 9.43791 20.1936 10.392L23.0373 7.54827C20.9533 5.81802 18.3035 4.91872 15.5969 5.02312C12.8902 5.12751 10.3176 6.22822 8.37305 8.11385C6.42851 9.99948 5.2492 12.5371 5.06162 15.2392C4.87404 17.9414 5.69142 20.6176 7.35677 22.7538C9.02212 24.89 11.418 26.3356 14.0843 26.813C16.7505 27.2904 19.4992 26.7658 21.8022 25.3401C24.1053 23.9144 25.8005 21.6881 26.5621 19.0887C27.3237 16.4893 27.0981 13.7002 25.9286 11.257C25.8142 11.0177 25.7996 10.7427 25.888 10.4925C25.9763 10.2424 26.1605 10.0376 26.3998 9.92327C26.6392 9.8089 26.9142 9.79429 27.1643 9.88267C27.4144 9.97104 27.6192 10.1552 27.7336 10.3945Z" fill="#212121"/>
</svg>
