<svg width="93" height="93" viewBox="0 0 93 93" fill="none" xmlns="http://www.w3.org/2000/svg">
<rect x="0.5" y="8.5625" width="83" height="83" stroke="#212121" stroke-opacity="0.4"/>
<path d="M42 50.0625C40.35 50.0625 38.9375 49.475 37.7625 48.3C36.5875 47.125 36 45.7125 36 44.0625C36 42.4125 36.5875 41 37.7625 39.825C38.9375 38.65 40.35 38.0625 42 38.0625C43.65 38.0625 45.0625 38.65 46.2375 39.825C47.4125 41 48 42.4125 48 44.0625C48 45.7125 47.4125 47.125 46.2375 48.3C45.0625 49.475 43.65 50.0625 42 50.0625ZM30 62.0625V57.8625C30 57.0125 30.2188 56.2312 30.6562 55.5187C31.0938 54.8062 31.675 54.2625 32.4 53.8875C33.95 53.1125 35.525 52.5312 37.125 52.1438C38.725 51.7563 40.35 51.5625 42 51.5625C43.65 51.5625 45.275 51.7563 46.875 52.1438C48.475 52.5312 50.05 53.1125 51.6 53.8875C52.325 54.2625 52.9062 54.8062 53.3438 55.5187C53.7812 56.2312 54 57.0125 54 57.8625V62.0625H30ZM33 59.0625H51V57.8625C51 57.5875 50.9313 57.3375 50.7938 57.1125C50.6562 56.8875 50.475 56.7125 50.25 56.5875C48.9 55.9125 47.5375 55.4062 46.1625 55.0688C44.7875 54.7313 43.4 54.5625 42 54.5625C40.6 54.5625 39.2125 54.7313 37.8375 55.0688C36.4625 55.4062 35.1 55.9125 33.75 56.5875C33.525 56.7125 33.3438 56.8875 33.2062 57.1125C33.0687 57.3375 33 57.5875 33 57.8625V59.0625ZM42 47.0625C42.825 47.0625 43.5312 46.7687 44.1187 46.1812C44.7062 45.5937 45 44.8875 45 44.0625C45 43.2375 44.7062 42.5312 44.1187 41.9437C43.5312 41.3562 42.825 41.0625 42 41.0625C41.175 41.0625 40.4688 41.3562 39.8813 41.9437C39.2938 42.5312 39 43.2375 39 44.0625C39 44.8875 39.2938 45.5937 39.8813 46.1812C40.4688 46.7687 41.175 47.0625 42 47.0625Z" fill="#FF7100"/>
<rect width="20.75" height="19.75" transform="translate(71.3125)" fill="#FF7100"/>
<path d="M81.6875 14.55L80.9625 13.9C80.1208 13.1417 79.425 12.4875 78.875 11.9375C78.325 11.3875 77.8875 10.8938 77.5625 10.4563C77.2375 10.0188 77.0104 9.61667 76.8812 9.25C76.7521 8.88333 76.6875 8.50833 76.6875 8.125C76.6875 7.34167 76.95 6.6875 77.475 6.1625C78 5.6375 78.6542 5.375 79.4375 5.375C79.8708 5.375 80.2833 5.46667 80.675 5.65C81.0667 5.83333 81.4042 6.09167 81.6875 6.425C81.9708 6.09167 82.3083 5.83333 82.7 5.65C83.0917 5.46667 83.5042 5.375 83.9375 5.375C84.7208 5.375 85.375 5.6375 85.9 6.1625C86.425 6.6875 86.6875 7.34167 86.6875 8.125C86.6875 8.50833 86.6229 8.88333 86.4937 9.25C86.3646 9.61667 86.1375 10.0188 85.8125 10.4563C85.4875 10.8938 85.05 11.3875 84.5 11.9375C83.95 12.4875 83.2542 13.1417 82.4125 13.9L81.6875 14.55ZM81.6875 13.2C82.4875 12.4833 83.1458 11.8687 83.6625 11.3562C84.1792 10.8438 84.5875 10.3979 84.8875 10.0188C85.1875 9.63958 85.3958 9.30208 85.5125 9.00625C85.6292 8.71042 85.6875 8.41667 85.6875 8.125C85.6875 7.625 85.5208 7.20833 85.1875 6.875C84.8542 6.54167 84.4375 6.375 83.9375 6.375C83.5458 6.375 83.1833 6.48542 82.85 6.70625C82.5167 6.92708 82.2875 7.20833 82.1625 7.55H81.2125C81.0875 7.20833 80.8583 6.92708 80.525 6.70625C80.1917 6.48542 79.8292 6.375 79.4375 6.375C78.9375 6.375 78.5208 6.54167 78.1875 6.875C77.8542 7.20833 77.6875 7.625 77.6875 8.125C77.6875 8.41667 77.7458 8.71042 77.8625 9.00625C77.9792 9.30208 78.1875 9.63958 78.4875 10.0188C78.7875 10.3979 79.1958 10.8438 79.7125 11.3562C80.2292 11.8687 80.8875 12.4833 81.6875 13.2Z" fill="white"/>
</svg>
