<svg width="82" height="82" viewBox="0 0 82 82" fill="none" xmlns="http://www.w3.org/2000/svg">
<rect x="0.5" y="0.5" width="81" height="81" stroke="#212121" stroke-opacity="0.4"/>
<rect x="32.5" y="31.5" width="49" height="49" stroke="#FF7100"/>
<path d="M27.75 29.5L19.875 21.625C19.25 22.125 18.5312 22.5208 17.7188 22.8125C16.9062 23.1042 16.0417 23.25 15.125 23.25C12.8542 23.25 10.9323 22.4635 9.35938 20.8906C7.78646 19.3177 7 17.3958 7 15.125C7 12.8542 7.78646 10.9323 9.35938 9.35938C10.9323 7.78646 12.8542 7 15.125 7C17.3958 7 19.3177 7.78646 20.8906 9.35938C22.4635 10.9323 23.25 12.8542 23.25 15.125C23.25 16.0417 23.1042 16.9062 22.8125 17.7188C22.5208 18.5312 22.125 19.25 21.625 19.875L29.5 27.75L27.75 29.5ZM15.125 20.75C16.6875 20.75 18.0156 20.2031 19.1094 19.1094C20.2031 18.0156 20.75 16.6875 20.75 15.125C20.75 13.5625 20.2031 12.2344 19.1094 11.1406C18.0156 10.0469 16.6875 9.5 15.125 9.5C13.5625 9.5 12.2344 10.0469 11.1406 11.1406C10.0469 12.2344 9.5 13.5625 9.5 15.125C9.5 16.6875 10.0469 18.0156 11.1406 19.1094C12.2344 20.2031 13.5625 20.75 15.125 20.75Z" fill="#FF7100"/>
</svg>
