<svg width="96" height="96" viewBox="0 0 96 96" fill="none" xmlns="http://www.w3.org/2000/svg">
<mask id="path-1-inside-1_1202_1578" fill="white">
<path d="M0 0H96V96H0V0Z"/>
</mask>
<path d="M96 96V95.2179H0V96V96.7821H96V96Z" fill="#212121" fill-opacity="0.3" mask="url(#path-1-inside-1_1202_1578)"/>
<mask id="path-3-inside-2_1202_1578" fill="white">
<path d="M20 63.218H36V95.218H20V63.218Z"/>
</mask>
<path d="M20 63.218V62.4359H19.2179V63.218H20ZM36 63.218H36.7821V62.4359H36V63.218ZM20 63.218V64.0001H36V63.218V62.4359H20V63.218ZM36 63.218H35.2179V95.218H36H36.7821V63.218H36ZM20 95.218H20.7821V63.218H20H19.2179V95.218H20Z" fill="#212121" fill-opacity="0.4" mask="url(#path-3-inside-2_1202_1578)"/>
<mask id="path-5-inside-3_1202_1578" fill="white">
<path d="M40 39.218H56V95.218H40V39.218Z"/>
</mask>
<path d="M40 39.218V38.4359H39.2179V39.218H40ZM56 39.218H56.7821V38.4359H56V39.218ZM40 39.218V40.0001H56V39.218V38.4359H40V39.218ZM56 39.218H55.2179V95.218H56H56.7821V39.218H56ZM40 95.218H40.7821V39.218H40H39.2179V95.218H40Z" fill="#212121" fill-opacity="0.4" mask="url(#path-5-inside-3_1202_1578)"/>
<mask id="path-7-inside-4_1202_1578" fill="white">
<path d="M60 15.218H76V95.218H60V15.218Z"/>
</mask>
<path d="M60 15.218V14.218H59V15.218H60ZM76 15.218H77V14.218H76V15.218ZM60 15.218V16.218H76V15.218V14.218H60V15.218ZM76 15.218H75V95.218H76H77V15.218H76ZM60 95.218H61V15.218H60H59V95.218H60Z" fill="#FF7100" mask="url(#path-7-inside-4_1202_1578)"/>
<path d="M77.4 12L76 10.6L83.4 3.15L87.4 7.15L92.6 2H90V0H96V6H94V3.4L87.4 10L83.4 6L77.4 12Z" fill="#FF7100"/>
</svg>
