<svg width="128" height="128" viewBox="0 0 128 128" fill="none" xmlns="http://www.w3.org/2000/svg">
<path opacity="0.2" d="M22 61.76C22 64.939 24.581 67.52 27.76 67.52C30.939 67.52 33.52 64.939 33.52 61.76C33.52 58.581 30.939 56 27.76 56C24.581 56 22 58.581 22 61.76Z" fill="#212121" fill-opacity="0.4"/>
<path opacity="0.4" d="M56.3203 23.6799C56.3203 26.859 58.9013 29.4399 62.0803 29.4399C65.2593 29.4399 67.8403 26.859 67.8403 23.6799C67.8403 20.5009 65.2593 17.9199 62.0803 17.9199C58.9013 17.9199 56.3203 20.5009 56.3203 23.6799Z" fill="#212121" fill-opacity="0.6"/>
<path opacity="0.6" d="M57 100.76C57 103.939 59.581 106.52 62.76 106.52C65.939 106.52 68.52 103.939 68.52 100.76C68.52 97.581 65.939 95 62.76 95C59.581 95 57 97.581 57 100.76Z" fill="#212121" fill-opacity="0.6"/>
<path d="M92.1602 61.4405C92.1602 65.6792 95.6014 69.1205 99.8402 69.1205C104.079 69.1205 107.52 65.6792 107.52 61.4405C107.52 57.2018 104.079 53.7605 99.8402 53.7605C95.6014 53.7605 92.1602 57.2018 92.1602 61.4405Z" fill="#FF7100"/>
<path d="M31.5 56.5L57 28.5" stroke="#212121" stroke-opacity="0.4"/>
<path d="M31 68L45 82.5L58.5 95.5" fill="black"/>
<path d="M31 68L45 82.5L58.5 95.5" stroke="#212121" stroke-opacity="0.4"/>
<path d="M67.5 27L94.5 55" stroke="#FF7100"/>
<path d="M67 95.5L88.9599 71.6797L93.5 67" fill="black"/>
<path d="M67 95.5L88.9599 71.6797L93.5 67" stroke="#FF7100"/>
<path d="M65.7917 63.125C65.0972 63.125 64.5069 62.8819 64.0208 62.3958C63.5347 61.9097 63.2917 61.3194 63.2917 60.625C63.2917 59.9306 63.5347 59.3403 64.0208 58.8542C64.5069 58.3681 65.0972 58.125 65.7917 58.125C66.4861 58.125 67.0764 58.3681 67.5625 58.8542C68.0486 59.3403 68.2917 59.9306 68.2917 60.625C68.2917 61.3194 68.0486 61.9097 67.5625 62.3958C67.0764 62.8819 66.4861 63.125 65.7917 63.125V63.125M60.6042 66.2708C59.8823 66.2708 59.2643 66.0138 58.7503 65.4997C58.2362 64.9857 57.9792 64.3677 57.9792 63.6458V57.625C57.9792 56.9031 58.2362 56.2852 58.7503 55.7711C59.2643 55.257 59.8823 55 60.6042 55H71C71.7219 55 72.3398 55.257 72.8539 55.7711C73.368 56.2852 73.625 56.9031 73.625 57.625V63.6458C73.625 64.3677 73.368 64.9857 72.8539 65.4997C72.3398 66.0138 71.7219 66.2708 71 66.2708H60.6042V66.2708M61.9583 63.9583H69.6458C69.6458 63.5 69.809 63.1076 70.1354 62.7812C70.4618 62.4549 70.8542 62.2917 71.3125 62.2917V58.9583C70.8542 58.9583 70.4618 58.7951 70.1354 58.4688C69.809 58.1424 69.6458 57.75 69.6458 57.2917H61.9583C61.9583 57.75 61.7951 58.1424 61.4688 58.4688C61.1424 58.7951 60.75 58.9583 60.2917 58.9583V62.2917C60.75 62.2917 61.1424 62.4549 61.4688 62.7812C61.7951 63.1076 61.9583 63.5 61.9583 63.9583V63.9583M70.4792 70.25H56.625C55.9031 70.25 55.2852 69.993 54.7711 69.4789C54.257 68.9648 54 68.3469 54 67.625V58.7708H56.625V67.625V67.625V67.625H70.4792V70.25V70.25M60.2917 63.9583V63.9583V63.9583V63.9583V57.2917V57.2917V57.2917V57.2917V57.2917V57.2917V63.9583V63.9583V63.9583V63.9583" stroke="#FF7100" stroke-linejoin="bevel"/>
</svg>
