<svg width="128" height="128" viewBox="0 0 128 128" fill="none" xmlns="http://www.w3.org/2000/svg">
<path opacity="0.2" d="M15.625 15.9999H111.625V112H15.625V15.9999Z" stroke="#FF7100" stroke-width="0.8"/>
<path d="M23.625 23.9999H103.625V104H23.625V23.9999Z" stroke="#FF7100" stroke-width="0.8"/>
<path d="M15.625 15.9999L23.625 23.9999M111.625 15.9999L103.625 23.9999M15.625 112L23.625 104M111.625 112L103.625 104" stroke="#FF7100" stroke-width="0.8"/>
<path d="M39.625 39.9999H87.625V55.9999H39.625V39.9999Z" stroke="#FF7100" stroke-width="0.8"/>
<path d="M39.625 63.9999H87.625V79.9999H39.625V63.9999Z" stroke="#FF7100" stroke-width="0.8"/>
<path d="M39.625 87.9999H87.625V95.9999H39.625V87.9999Z" stroke="#FF7100" stroke-width="0.8"/>
<path d="M62.0234 32.0003C62.0234 32.8833 62.7404 33.6003 63.6234 33.6003C64.5065 33.6003 65.2234 32.8833 65.2234 32.0003C65.2234 31.1172 64.5065 30.4003 63.6234 30.4003C62.7404 30.4003 62.0234 31.1172 62.0234 32.0003Z" stroke="#FF7100" stroke-width="0.8"/>
</svg>
