<svg width="96" height="96" viewBox="0 0 96 96" fill="none" xmlns="http://www.w3.org/2000/svg">
<path d="M9.59961 76.8002L28.7996 57.6002L57.5996 38.4002L86.3996 19.2002" stroke="#FF7100"/>
<path d="M6.71973 76.7999C6.71973 78.3894 8.01021 79.6799 9.59973 79.6799C11.1892 79.6799 12.4797 78.3894 12.4797 76.7999C12.4797 75.2104 11.1892 73.9199 9.59973 73.9199C8.01021 73.9199 6.71973 75.2104 6.71973 76.7999Z" fill="#FF7100"/>
<path d="M6.71973 76.7999C6.71973 78.3894 8.01021 79.6799 9.59973 79.6799C11.1892 79.6799 12.4797 78.3894 12.4797 76.7999C12.4797 75.2104 11.1892 73.9199 9.59973 73.9199C8.01021 73.9199 6.71973 75.2104 6.71973 76.7999V76.7999" stroke="#FF7100" stroke-width="1.44"/>
<path d="M25.9199 57.5997C25.9199 59.1892 27.2104 60.4797 28.7999 60.4797C30.3894 60.4797 31.6799 59.1892 31.6799 57.5997C31.6799 56.0102 30.3894 54.7197 28.7999 54.7197C27.2104 54.7197 25.9199 56.0102 25.9199 57.5997Z" fill="#FF7100"/>
<path d="M25.9199 57.5997C25.9199 59.1892 27.2104 60.4797 28.7999 60.4797C30.3894 60.4797 31.6799 59.1892 31.6799 57.5997C31.6799 56.0102 30.3894 54.7197 28.7999 54.7197C27.2104 54.7197 25.9199 56.0102 25.9199 57.5997V57.5997" stroke="#FF7100" stroke-width="1.44"/>
<path d="M54.7197 38.3995C54.7197 39.989 56.0102 41.2795 57.5997 41.2795C59.1892 41.2795 60.4797 39.989 60.4797 38.3995C60.4797 36.81 59.1892 35.5195 57.5997 35.5195C56.0102 35.5195 54.7197 36.81 54.7197 38.3995Z" fill="#FF7100"/>
<path d="M54.7197 38.3995C54.7197 39.989 56.0102 41.2795 57.5997 41.2795C59.1892 41.2795 60.4797 39.989 60.4797 38.3995C60.4797 36.81 59.1892 35.5195 57.5997 35.5195C56.0102 35.5195 54.7197 36.81 54.7197 38.3995V38.3995" stroke="#FF7100" stroke-width="1.44"/>
<path d="M83.5195 19.2003C83.5195 20.7898 84.81 22.0803 86.3995 22.0803C87.989 22.0803 89.2795 20.7898 89.2795 19.2003C89.2795 17.6108 87.989 16.3203 86.3995 16.3203C84.81 16.3203 83.5195 17.6108 83.5195 19.2003Z" fill="#FF7100"/>
<path d="M83.5195 19.2003C83.5195 20.7898 84.81 22.0803 86.3995 22.0803C87.989 22.0803 89.2795 20.7898 89.2795 19.2003C89.2795 17.6108 87.989 16.3203 86.3995 16.3203C84.81 16.3203 83.5195 17.6108 83.5195 19.2003V19.2003" stroke="#FF7100" stroke-width="1.44"/>
<path opacity="0.3" d="M9.59961 86.3996H86.3996M9.59961 9.59961V86.3996" stroke="#212121" stroke-opacity="0.4"/>
</svg>
