<svg width="96" height="96" viewBox="0 0 96 96" fill="none" xmlns="http://www.w3.org/2000/svg">
<path d="M9.59961 9.59961H86.3996V9.59961V86.3996V86.3996H9.59961V86.3996V9.59961V9.59961V9.59961" stroke="#FF7100"/>
<path opacity="0.3" d="M9.59961 38.3996H86.3996M9.59961 67.1996H86.3996M38.3996 9.59961V86.3996M67.1996 9.59961V86.3996" stroke="#212121" stroke-opacity="0.4"/>
<path d="M19.2002 24.0002C19.2002 26.6494 21.351 28.8002 24.0002 28.8002C26.6494 28.8002 28.8002 26.6494 28.8002 24.0002C28.8002 21.351 26.6494 19.2002 24.0002 19.2002C21.351 19.2002 19.2002 21.351 19.2002 24.0002Z" fill="#FF7100"/>
<path d="M19.2002 24.0002C19.2002 26.6494 21.351 28.8002 24.0002 28.8002C26.6494 28.8002 28.8002 26.6494 28.8002 24.0002C28.8002 21.351 26.6494 19.2002 24.0002 19.2002C21.351 19.2002 19.2002 21.351 19.2002 24.0002V24.0002" stroke="#FF7100" stroke-width="1.44"/>
<path d="M48 52.8C48 55.4492 50.1508 57.6 52.8 57.6C55.4492 57.6 57.6 55.4492 57.6 52.8C57.6 50.1508 55.4492 48 52.8 48C50.1508 48 48 50.1508 48 52.8Z" fill="#FF7100"/>
<path d="M48 52.8C48 55.4492 50.1508 57.6 52.8 57.6C55.4492 57.6 57.6 55.4492 57.6 52.8C57.6 50.1508 55.4492 48 52.8 48C50.1508 48 48 50.1508 48 52.8V52.8" stroke="#FF7100" stroke-width="1.44"/>
<path d="M76.7998 81.5998C76.7998 84.249 78.9506 86.3998 81.5998 86.3998C84.249 86.3998 86.3998 84.249 86.3998 81.5998C86.3998 78.9506 84.249 76.7998 81.5998 76.7998C78.9506 76.7998 76.7998 78.9506 76.7998 81.5998Z" fill="#FF7100"/>
<path d="M76.7998 81.5998C76.7998 84.249 78.9506 86.3998 81.5998 86.3998C84.249 86.3998 86.3998 84.249 86.3998 81.5998C86.3998 78.9506 84.249 76.7998 81.5998 76.7998C78.9506 76.7998 76.7998 78.9506 76.7998 81.5998V81.5998" stroke="#FF7100" stroke-width="1.44"/>
<path d="M24 24L52.8 52.8L81.6 81.6" stroke="#FF7100" stroke-dasharray="3.84 1.92"/>
</svg>
